<svg width="108" height="58" viewBox="0 0 108 58" fill="none" xmlns="http://www.w3.org/2000/svg">
<g filter="url(#filter0_d)">
<path d="M4 8C4 3.58172 7.58172 0 12 0H96C100.418 0 104 3.58172 104 8V42C104 46.4183 100.418 50 96 50H12C7.58172 50 4 46.4183 4 42V8Z" fill="#FE5801" fill-opacity="0.82"/>
</g>
<path d="M94.5714 23.5714H89.7143C89.5565 23.5714 89.4286 23.4435 89.4286 23.2857V18.4286C89.4286 17.6396 88.7889 17 88 17C87.2111 17 86.5714 17.6396 86.5714 18.4286V23.2857C86.5714 23.4435 86.4435 23.5714 86.2857 23.5714H81.4286C80.6396 23.5714 80 24.2111 80 25C80 25.7889 80.6396 26.4286 81.4286 26.4286H86.2857C86.4435 26.4286 86.5714 26.5565 86.5714 26.7143V31.5714C86.5714 32.3604 87.2111 33 88 33C88.7889 33 89.4286 32.3604 89.4286 31.5714V26.7143C89.4286 26.5565 89.5565 26.4286 89.7143 26.4286H94.5714C95.3604 26.4286 96 25.7889 96 25C96 24.2111 95.3604 23.5714 94.5714 23.5714Z" fill="white"/>
<g clip-path="url(#clip0)">
<path d="M36.6258 15.6429H18.3764C15.9694 15.6429 14 17.2676 14 19.2534V31.4208C14 33.4065 15.9694 35.0313 18.3764 35.0313H36.6258C39.0328 35.0313 41.0022 33.4065 41.0022 31.4208V19.2534C41.0022 17.2315 39.0328 15.6429 36.6258 15.6429Z" fill="white"/>
<path d="M50.9589 17.2724C50.6963 17.3085 50.4337 17.4169 50.2149 17.5252L43.3878 20.7746V29.151L50.2586 32.4004C51.5278 33.0142 53.1033 32.6532 53.8473 31.6061C54.0661 31.2812 54.1974 30.9201 54.1974 30.523V19.3665C54.1974 18.0306 52.6656 16.9475 50.9589 17.2724Z" fill="#fff"/>
</g>
<defs>
<filter id="filter0_d" x="0" y="0" width="108" height="58" filterUnits="userSpaceOnUse" color-interpolation-filters="sRGB">
<feFlood flood-opacity="0" result="BackgroundImageFix"/>
<feColorMatrix in="SourceAlpha" type="matrix" values="0 0 0 0 0 0 0 0 0 0 0 0 0 0 0 0 0 0 127 0"/>
<feOffset dy="4"/>
<feGaussianBlur stdDeviation="2"/>
<feColorMatrix type="matrix" values="0 0 0 0 0 0 0 0 0 0 0 0 0 0 0 0 0 0 0.25 0"/>
<feBlend mode="normal" in2="BackgroundImageFix" result="effect1_dropShadow"/>
<feBlend mode="normal" in="SourceGraphic" in2="effect1_dropShadow" result="shape"/>
</filter>
<clipPath id="clip0">
<rect width="40" height="33" fill="white" transform="translate(14 7)"/>
</clipPath>
</defs>
</svg>
